<mxfile host="app.diagrams.net" modified="2024-07-16T15:54:46.060Z" agent="Mozilla/5.0 (Windows NT 10.0; Win64; x64) AppleWebKit/537.36 (KHTML, like Gecko) Chrome/126.0.0.0 Safari/537.36" version="24.6.5" etag="-hFhzRsqYmGsVfsxUtYD" type="github">
  <diagram name="Страница — 1" id="1VlOiQmseGdg0Pu7qy3N">
    <mxGraphModel>
      <root>
        <mxCell id="0" />
        <mxCell id="1" parent="0" />
      </root>
    </mxGraphModel>
  </diagram>
</mxfile>
